<svg width="25" height="25" viewBox="0 0 25 25" fill="none" xmlns="http://www.w3.org/2000/svg">
<path d="M12.4167 19.7915C12.6227 19.7915 12.8241 19.7304 12.9954 19.616C13.1667 19.5015 13.3002 19.3388 13.379 19.1485C13.4579 18.9581 13.4785 18.7487 13.4383 18.5466C13.3981 18.3446 13.2989 18.1589 13.1532 18.0133C13.0076 17.8676 12.8219 17.7684 12.6199 17.7282C12.4178 17.688 12.2084 17.7086 12.018 17.7875C11.8277 17.8663 11.665 17.9998 11.5506 18.1711C11.4361 18.3424 11.375 18.5438 11.375 18.7498C11.375 19.0261 11.4847 19.2911 11.6801 19.4864C11.8754 19.6818 12.1404 19.7915 12.4167 19.7915ZM17.625 19.7915C17.831 19.7915 18.0324 19.7304 18.2037 19.616C18.375 19.5015 18.5085 19.3388 18.5874 19.1485C18.6662 18.9581 18.6868 18.7487 18.6467 18.5466C18.6065 18.3446 18.5072 18.1589 18.3616 18.0133C18.2159 17.8676 18.0303 17.7684 17.8282 17.7282C17.6262 17.688 17.4167 17.7086 17.2264 17.7875C17.036 17.8663 16.8733 17.9998 16.7589 18.1711C16.6444 18.3424 16.5833 18.5438 16.5833 18.7498C16.5833 19.0261 16.6931 19.2911 16.8884 19.4864C17.0838 19.6818 17.3487 19.7915 17.625 19.7915ZM17.625 15.6248C17.831 15.6248 18.0324 15.5637 18.2037 15.4493C18.375 15.3348 18.5085 15.1721 18.5874 14.9818C18.6662 14.7915 18.6868 14.582 18.6467 14.38C18.6065 14.1779 18.5072 13.9923 18.3616 13.8466C18.2159 13.7009 18.0303 13.6017 17.8282 13.5615C17.6262 13.5213 17.4167 13.542 17.2264 13.6208C17.036 13.6996 16.8733 13.8332 16.7589 14.0045C16.6444 14.1758 16.5833 14.3771 16.5833 14.5832C16.5833 14.8594 16.6931 15.1244 16.8884 15.3197C17.0838 15.5151 17.3487 15.6248 17.625 15.6248ZM12.4167 15.6248C12.6227 15.6248 12.8241 15.5637 12.9954 15.4493C13.1667 15.3348 13.3002 15.1721 13.379 14.9818C13.4579 14.7915 13.4785 14.582 13.4383 14.38C13.3981 14.1779 13.2989 13.9923 13.1532 13.8466C13.0076 13.7009 12.8219 13.6017 12.6199 13.5615C12.4178 13.5213 12.2084 13.542 12.018 13.6208C11.8277 13.6996 11.665 13.8332 11.5506 14.0045C11.4361 14.1758 11.375 14.3771 11.375 14.5832C11.375 14.8594 11.4847 15.1244 11.6801 15.3197C11.8754 15.5151 12.1404 15.6248 12.4167 15.6248ZM19.7083 3.12484H18.6667V2.08317C18.6667 1.8069 18.5569 1.54195 18.3616 1.3466C18.1662 1.15125 17.9013 1.0415 17.625 1.0415C17.3487 1.0415 17.0838 1.15125 16.8884 1.3466C16.6931 1.54195 16.5833 1.8069 16.5833 2.08317V3.12484H8.25V2.08317C8.25 1.8069 8.14025 1.54195 7.9449 1.3466C7.74955 1.15125 7.4846 1.0415 7.20833 1.0415C6.93207 1.0415 6.66711 1.15125 6.47176 1.3466C6.27641 1.54195 6.16667 1.8069 6.16667 2.08317V3.12484H5.125C4.2962 3.12484 3.50134 3.45408 2.91529 4.04013C2.32924 4.62618 2 5.42104 2 6.24984V20.8332C2 21.662 2.32924 22.4568 2.91529 23.0429C3.50134 23.6289 4.2962 23.9582 5.125 23.9582H19.7083C20.5371 23.9582 21.332 23.6289 21.918 23.0429C22.5041 22.4568 22.8333 21.662 22.8333 20.8332V6.24984C22.8333 5.42104 22.5041 4.62618 21.918 4.04013C21.332 3.45408 20.5371 3.12484 19.7083 3.12484ZM20.75 20.8332C20.75 21.1094 20.6403 21.3744 20.4449 21.5697C20.2496 21.7651 19.9846 21.8748 19.7083 21.8748H5.125C4.84873 21.8748 4.58378 21.7651 4.38843 21.5697C4.19308 21.3744 4.08333 21.1094 4.08333 20.8332V11.4582H20.75V20.8332ZM20.75 9.37484H4.08333V6.24984C4.08333 5.97357 4.19308 5.70862 4.38843 5.51327C4.58378 5.31792 4.84873 5.20817 5.125 5.20817H6.16667V6.24984C6.16667 6.5261 6.27641 6.79106 6.47176 6.98641C6.66711 7.18176 6.93207 7.2915 7.20833 7.2915C7.4846 7.2915 7.74955 7.18176 7.9449 6.98641C8.14025 6.79106 8.25 6.5261 8.25 6.24984V5.20817H16.5833V6.24984C16.5833 6.5261 16.6931 6.79106 16.8884 6.98641C17.0838 7.18176 17.3487 7.2915 17.625 7.2915C17.9013 7.2915 18.1662 7.18176 18.3616 6.98641C18.5569 6.79106 18.6667 6.5261 18.6667 6.24984V5.20817H19.7083C19.9846 5.20817 20.2496 5.31792 20.4449 5.51327C20.6403 5.70862 20.75 5.97357 20.75 6.24984V9.37484ZM7.20833 15.6248C7.41436 15.6248 7.61575 15.5637 7.78705 15.4493C7.95835 15.3348 8.09187 15.1721 8.17071 14.9818C8.24955 14.7915 8.27018 14.582 8.22998 14.38C8.18979 14.1779 8.09058 13.9923 7.9449 13.8466C7.79922 13.7009 7.61362 13.6017 7.41155 13.5615C7.20949 13.5213 7.00004 13.542 6.8097 13.6208C6.61937 13.6996 6.45668 13.8332 6.34222 14.0045C6.22776 14.1758 6.16667 14.3771 6.16667 14.5832C6.16667 14.8594 6.27641 15.1244 6.47176 15.3197C6.66711 15.5151 6.93207 15.6248 7.20833 15.6248ZM7.20833 19.7915C7.41436 19.7915 7.61575 19.7304 7.78705 19.616C7.95835 19.5015 8.09187 19.3388 8.17071 19.1485C8.24955 18.9581 8.27018 18.7487 8.22998 18.5466C8.18979 18.3446 8.09058 18.1589 7.9449 18.0133C7.79922 17.8676 7.61362 17.7684 7.41155 17.7282C7.20949 17.688 7.00004 17.7086 6.8097 17.7875C6.61937 17.8663 6.45668 17.9998 6.34222 18.1711C6.22776 18.3424 6.16667 18.5438 6.16667 18.7498C6.16667 19.0261 6.27641 19.2911 6.47176 19.4864C6.66711 19.6818 6.93207 19.7915 7.20833 19.7915Z" fill="#00B17E"/>
</svg>
