<svg width="7" height="12" viewBox="0 0 7 12" fill="none" xmlns="http://www.w3.org/2000/svg">
<path d="M0.331475 5.19078L5.08287 0.338513C5.18704 0.231249 5.31098 0.146112 5.44754 0.0880123C5.5841 0.0299124 5.73057 0 5.8785 0C6.02643 0 6.1729 0.0299124 6.30946 0.0880123C6.44602 0.146112 6.56996 0.231249 6.67413 0.338513C6.88285 0.552931 7 0.842982 7 1.14532C7 1.44765 6.88285 1.7377 6.67413 1.95212L2.70717 6.00331L6.67413 10.0545C6.88285 10.2689 7 10.559 7 10.8613C7 11.1636 6.88285 11.4537 6.67413 11.6681C6.56942 11.7742 6.44524 11.8581 6.30871 11.915C6.17218 11.972 6.02598 12.0009 5.8785 12C5.73102 12.0009 5.58482 11.972 5.44829 11.915C5.31176 11.8581 5.18758 11.7742 5.08287 11.6681L0.331475 6.81583C0.226442 6.70945 0.143075 6.58288 0.0861829 6.44342C0.029291 6.30396 -9.1378e-08 6.15438 -9.1378e-08 6.00331C-9.1378e-08 5.85223 0.029291 5.70265 0.0861829 5.5632C0.143075 5.42374 0.226442 5.29717 0.331475 5.19078Z" fill="#00B17E"/>
</svg>
