<svg width="7" height="12" viewBox="0 0 7 12" fill="none" xmlns="http://www.w3.org/2000/svg">
<path d="M6.66853 5.19078L1.91713 0.338513C1.81296 0.231249 1.68902 0.146112 1.55246 0.0880123C1.4159 0.0299124 1.26943 0 1.1215 0C0.973565 0 0.827095 0.0299124 0.690538 0.0880123C0.553981 0.146112 0.430041 0.231249 0.325865 0.338513C0.11715 0.552931 0 0.842982 0 1.14532C0 1.44765 0.11715 1.7377 0.325865 1.95212L4.29283 6.00331L0.325865 10.0545C0.11715 10.2689 0 10.559 0 10.8613C0 11.1636 0.11715 11.4537 0.325865 11.6681C0.430575 11.7742 0.554757 11.8581 0.69129 11.915C0.827822 11.972 0.97402 12.0009 1.1215 12C1.26898 12.0009 1.41518 11.972 1.55171 11.915C1.68824 11.8581 1.81242 11.7742 1.91713 11.6681L6.66853 6.81583C6.77356 6.70945 6.85693 6.58288 6.91382 6.44342C6.97071 6.30396 7 6.15438 7 6.00331C7 5.85223 6.97071 5.70265 6.91382 5.5632C6.85693 5.42374 6.77356 5.29717 6.66853 5.19078Z" fill="#00B17E"/>
</svg>
