<svg width="24" height="24" viewBox="0 0 24 24" fill="none" xmlns="http://www.w3.org/2000/svg">
<path fill-rule="evenodd" clip-rule="evenodd" d="M20 7.238V13H22V4C22 3.73478 21.8946 3.48043 21.7071 3.29289C21.5196 3.10536 21.2652 3 21 3H3C2.73478 3 2.48043 3.10536 2.29289 3.29289C2.10536 3.48043 2 3.73478 2 4V20C2 20.2652 2.10536 20.5196 2.29289 20.7071C2.48043 20.8946 2.73478 21 3 21H14V19H4V7.216L12.072 14.338L20 7.238ZM12.061 11.662L4.511 5H19.502L12.061 11.662Z" fill="#F3F4F8"/>
<path d="M21 18H24V20H21V23H19V20H16V18H19V15H21V18Z" fill="#1BB17D"/>
</svg>
