<svg width="45" height="46" viewBox="0 0 45 46" fill="none" xmlns="http://www.w3.org/2000/svg">
<path d="M3.375 5.6875C3.375 4.75552 4.13052 4 5.0625 4H39.9375C40.8695 4 41.625 4.75552 41.625 5.6875C41.625 6.61948 40.8695 7.375 39.9375 7.375H5.0625C4.13052 7.375 3.375 6.61948 3.375 5.6875Z" fill="white"/>
<path d="M3.375 18.0625C3.375 17.1305 4.13052 16.375 5.0625 16.375H33.1875C34.1195 16.375 34.875 17.1305 34.875 18.0625V18.0625C34.875 18.9945 34.1195 19.75 33.1875 19.75H5.0625C4.13052 19.75 3.375 18.9945 3.375 18.0625V18.0625Z" fill="white"/>
<path d="M3.375 30.4375C3.375 29.5055 4.13052 28.75 5.0625 28.75H23.0625C23.9945 28.75 24.75 29.5055 24.75 30.4375V30.4375C24.75 31.3695 23.9945 32.125 23.0625 32.125H5.0625C4.13052 32.125 3.375 31.3695 3.375 30.4375V30.4375Z" fill="white"/>
<path fill-rule="evenodd" clip-rule="evenodd" d="M8.10022 34.825C8.10022 34.5765 8.30169 34.375 8.55022 34.375H8.77522C9.02375 34.375 9.22522 34.5765 9.22522 34.825V41.8C9.22522 42.0485 9.02375 42.25 8.77522 42.25H8.55022C8.30169 42.25 8.10022 42.0485 8.10022 41.8V34.825ZM3.71255 37.075C3.71255 36.8265 3.91403 36.625 4.16255 36.625H4.38755C4.63608 36.625 4.83755 36.8265 4.83755 37.075V41.8C4.83755 42.0485 4.63608 42.25 4.38755 42.25H4.16255C3.91403 42.25 3.71255 42.0485 3.71255 41.8V37.075ZM5.17511 39.325C5.17511 39.0765 5.37658 38.875 5.62511 38.875H5.85011C6.09864 38.875 6.30011 39.0765 6.30011 39.325V41.8C6.30011 42.0485 6.09864 42.25 5.85011 42.25H5.62511C5.37658 42.25 5.17511 42.0485 5.17511 41.8V39.325ZM7.08766 36.625C6.83914 36.625 6.63766 36.8265 6.63766 37.075V41.8C6.63766 42.0485 6.83914 42.25 7.08766 42.25H7.31266C7.56119 42.25 7.76266 42.0485 7.76266 41.8V37.075C7.76266 36.8265 7.56119 36.625 7.31266 36.625H7.08766ZM10.0128 37.75C9.76425 37.75 9.56277 37.9515 9.56277 38.2V41.8C9.56277 42.0485 9.76425 42.25 10.0128 42.25H10.2378C10.4863 42.25 10.6878 42.0485 10.6878 41.8V38.2C10.6878 37.9515 10.4863 37.75 10.2378 37.75H10.0128ZM11.0253 37.075C11.0253 36.8265 11.2268 36.625 11.4753 36.625H11.7003C11.9489 36.625 12.1503 36.8265 12.1503 37.075V41.8C12.1503 42.0485 11.9489 42.25 11.7003 42.25H11.4753C11.2268 42.25 11.0253 42.0485 11.0253 41.8V37.075ZM12.9379 38.875C12.6894 38.875 12.4879 39.0765 12.4879 39.325V41.8C12.4879 42.0485 12.6894 42.25 12.9379 42.25H13.1629C13.4114 42.25 13.6129 42.0485 13.6129 41.8V39.325C13.6129 39.0765 13.4114 38.875 13.1629 38.875H12.9379ZM22.7258 39.325C22.7258 39.0765 22.9272 38.875 23.1758 38.875H23.4008C23.6493 38.875 23.8508 39.0765 23.8508 39.325V41.8C23.8508 42.0485 23.6493 42.25 23.4008 42.25H23.1758C22.9272 42.25 22.7258 42.0485 22.7258 41.8V39.325ZM33.4137 38.875C33.1651 38.875 32.9637 39.0765 32.9637 39.325V41.8C32.9637 42.0485 33.1651 42.25 33.4137 42.25H33.6387C33.8872 42.25 34.0887 42.0485 34.0887 41.8V39.325C34.0887 39.0765 33.8872 38.875 33.6387 38.875H33.4137ZM13.9504 37.075C13.9504 36.8265 14.1519 36.625 14.4004 36.625H14.6254C14.874 36.625 15.0754 36.8265 15.0754 37.075V41.8C15.0754 42.0485 14.874 42.25 14.6254 42.25H14.4004C14.1519 42.25 13.9504 42.0485 13.9504 41.8V37.075ZM24.6383 36.625C24.3898 36.625 24.1883 36.8265 24.1883 37.075V41.8C24.1883 42.0485 24.3898 42.25 24.6383 42.25H24.8633C25.1119 42.25 25.3133 42.0485 25.3133 41.8V37.075C25.3133 36.8265 25.1119 36.625 24.8633 36.625H24.6383ZM34.4262 37.075C34.4262 36.8265 34.6277 36.625 34.8762 36.625H35.1012C35.3497 36.625 35.5512 36.8265 35.5512 37.075V41.8C35.5512 42.0485 35.3497 42.25 35.1012 42.25H34.8762C34.6277 42.25 34.4262 42.0485 34.4262 41.8V37.075ZM15.863 38.875C15.6145 38.875 15.413 39.0765 15.413 39.325V41.8C15.413 42.0485 15.6145 42.25 15.863 42.25H16.088C16.3365 42.25 16.538 42.0485 16.538 41.8V39.325C16.538 39.0765 16.3365 38.875 16.088 38.875H15.863ZM25.6509 39.325C25.6509 39.0765 25.8524 38.875 26.1009 38.875H26.3259C26.5744 38.875 26.7759 39.0765 26.7759 39.325V41.8C26.7759 42.0485 26.5744 42.25 26.3259 42.25H26.1009C25.8524 42.25 25.6509 42.0485 25.6509 41.8V39.325ZM36.3388 38.875C36.0902 38.875 35.8888 39.0765 35.8888 39.325V41.8C35.8888 42.0485 36.0902 42.25 36.3388 42.25H36.5638C36.8123 42.25 37.0138 42.0485 37.0138 41.8V39.325C37.0138 39.0765 36.8123 38.875 36.5638 38.875H36.3388ZM16.8755 37.075C16.8755 36.8265 17.077 36.625 17.3255 36.625H17.5505C17.7991 36.625 18.0005 36.8265 18.0005 37.075V41.8C18.0005 42.0485 17.7991 42.25 17.5505 42.25H17.3255C17.077 42.25 16.8755 42.0485 16.8755 41.8V37.075ZM27.5634 36.625C27.3149 36.625 27.1134 36.8265 27.1134 37.075V41.8C27.1134 42.0485 27.3149 42.25 27.5634 42.25H27.7884C28.037 42.25 28.2384 42.0485 28.2384 41.8V37.075C28.2384 36.8265 28.037 36.625 27.7884 36.625H27.5634ZM37.3513 37.075C37.3513 36.8265 37.5528 36.625 37.8013 36.625H38.0263C38.2748 36.625 38.4763 36.8265 38.4763 37.075V41.8C38.4763 42.0485 38.2748 42.25 38.0263 42.25H37.8013C37.5528 42.25 37.3513 42.0485 37.3513 41.8V37.075ZM18.7881 34.375C18.5396 34.375 18.3381 34.5765 18.3381 34.825V41.8C18.3381 42.0485 18.5396 42.25 18.7881 42.25H19.0131C19.2616 42.25 19.4631 42.0485 19.4631 41.8V34.825C19.4631 34.5765 19.2616 34.375 19.0131 34.375H18.7881ZM28.576 34.825C28.576 34.5765 28.7775 34.375 29.026 34.375H29.251C29.4995 34.375 29.701 34.5765 29.701 34.825V41.8C29.701 42.0485 29.4995 42.25 29.251 42.25H29.026C28.7775 42.25 28.576 42.0485 28.576 41.8V34.825ZM39.2639 35.5C39.0153 35.5 38.8139 35.7015 38.8139 35.95V41.8C38.8139 42.0485 39.0153 42.25 39.2639 42.25H39.4889C39.7374 42.25 39.9389 42.0485 39.9389 41.8V35.95C39.9389 35.7015 39.7374 35.5 39.4889 35.5H39.2639ZM19.8007 38.2C19.8007 37.9515 20.0021 37.75 20.2507 37.75H20.4757C20.7242 37.75 20.9257 37.9515 20.9257 38.2V41.8C20.9257 42.0485 20.7242 42.25 20.4757 42.25H20.2507C20.0021 42.25 19.8007 42.0485 19.8007 41.8V38.2ZM30.4885 37.75C30.24 37.75 30.0385 37.9515 30.0385 38.2V41.8C30.0385 42.0485 30.24 42.25 30.4885 42.25H30.7135C30.9621 42.25 31.1635 42.0485 31.1635 41.8V38.2C31.1635 37.9515 30.9621 37.75 30.7135 37.75H30.4885ZM21.2632 37.075C21.2632 36.8265 21.4647 36.625 21.7132 36.625H21.9382C22.1867 36.625 22.3882 36.8265 22.3882 37.075V41.8C22.3882 42.0485 22.1867 42.25 21.9382 42.25H21.7132C21.4647 42.25 21.2632 42.0485 21.2632 41.8V37.075ZM31.9511 36.625C31.7026 36.625 31.5011 36.8265 31.5011 37.075V41.8C31.5011 42.0485 31.7026 42.25 31.9511 42.25H32.1761C32.4246 42.25 32.6261 42.0485 32.6261 41.8V37.075C32.6261 36.8265 32.4246 36.625 32.1761 36.625H31.9511Z" fill="url(#paint0_linear_1_493)"/>
<path d="M41.625 25.9375C41.625 31.84 36.84 36.625 30.9375 36.625C25.035 36.625 20.25 31.84 20.25 25.9375C20.25 20.035 25.035 15.25 30.9375 15.25C36.84 15.25 41.625 20.035 41.625 25.9375Z" fill="white"/>
<path d="M40.5 25.9375C40.5 31.2187 36.2187 35.5 30.9375 35.5C25.6563 35.5 21.375 31.2187 21.375 25.9375C21.375 20.6563 25.6563 16.375 30.9375 16.375C36.2187 16.375 40.5 20.6563 40.5 25.9375Z" fill="url(#paint1_linear_1_493)"/>
<path d="M34.0313 26.4246C34.4063 26.2081 34.4062 25.6669 34.0312 25.4504L29.8125 23.0147C29.4375 22.7981 28.9687 23.0688 28.9687 23.5018L28.9688 28.3732C28.9688 28.8062 29.4375 29.0768 29.8125 28.8603L34.0313 26.4246Z" fill="white"/>
<defs>
<linearGradient id="paint0_linear_1_493" x1="21.8257" y1="34.375" x2="21.8225" y2="46.8554" gradientUnits="userSpaceOnUse">
<stop stop-color="#1BB17D"/>
<stop offset="1" stop-color="#283890"/>
</linearGradient>
<linearGradient id="paint1_linear_1_493" x1="30.9375" y1="16.375" x2="30.9014" y2="46.6844" gradientUnits="userSpaceOnUse">
<stop stop-color="#1BB17D"/>
<stop offset="1" stop-color="#283890"/>
</linearGradient>
</defs>
</svg>
